<?xml version="1.0" encoding="iso-8859-1"?>
<!-- Generator: Adobe Illustrator 19.0.0, SVG Export Plug-In . SVG Version: 6.00 Build 0)  -->
<svg version="1.1" id="Capa_1" xmlns="http://www.w3.org/2000/svg" xmlns:xlink="http://www.w3.org/1999/xlink" x="0px" y="0px"
	 viewBox="0 0 512 512" style="enable-background:new 0 0 512 512;" xml:space="preserve">
<circle style="fill:#FFE17D;" cx="255.999" cy="255.999" r="248.499"/>
<g>
	<circle style="fill:#FAC97A;" cx="384.258" cy="296.079" r="56.11"/>
	<circle style="fill:#FAC97A;" cx="127.74" cy="296.079" r="56.11"/>
</g>
<path style="fill:#FFD164;" d="M292.073,468.427c-137.242,0-248.499-111.257-248.499-248.499c0-59.433,20.891-113.97,55.695-156.732
	C43.285,108.761,7.501,178.191,7.501,256c0,137.241,111.256,248.499,248.499,248.499c77.81,0,147.241-35.784,192.805-91.768
	C406.044,447.535,351.505,468.427,292.073,468.427z"/>
<path style="fill:#9C6846;" d="M256.057,330.601c-37.979,0-72.699-4.437-99.729-11.792c-5.809-1.581-9.978,5.811-5.584,9.926
	c25.895,24.25,63.421,39.548,105.313,39.548s79.419-15.299,105.313-39.548c4.394-4.115,0.225-11.507-5.584-9.926
	C328.756,326.164,294.037,330.601,256.057,330.601z"/>
<path d="M15.109,248.713c1.833-61.604,26.857-119.542,70.459-163.145C129.171,41.965,187.11,16.943,248.713,15.11
	c61.332-1.834,120.401,19.43,166.327,59.852c3.109,2.737,7.849,2.436,10.585-0.675c2.737-3.109,2.435-7.848-0.675-10.585
	C376.16,20.759,313.407-1.82,248.267,0.116c-65.44,1.948-126.988,28.529-173.305,74.847C28.644,121.279,2.063,182.827,0.115,248.267
	C-1.824,313.414,20.757,376.16,63.7,424.95c1.482,1.685,3.552,2.545,5.633,2.545c1.76,0,3.527-0.616,4.952-1.87
	c3.109-2.737,3.412-7.476,0.675-10.585C34.538,369.115,13.283,310.046,15.109,248.713z"/>
<path d="M448.3,87.05c-2.736-3.109-7.476-3.411-10.585-0.675c-3.109,2.737-3.412,7.476-0.675,10.585
	c40.421,45.926,61.677,104.994,59.852,166.327c-1.833,61.603-26.856,119.542-70.459,163.145s-101.541,68.626-163.145,70.459
	c-61.334,1.824-120.401-19.43-166.327-59.851c-3.108-2.736-7.848-2.435-10.585,0.675c-2.737,3.109-2.435,7.848,0.675,10.585
	C133.904,489.539,193.63,512,255.992,512c2.576,0,5.158-0.039,7.742-0.116c65.441-1.948,126.988-28.529,173.305-74.846
	c46.318-46.317,72.899-107.865,74.847-173.305C513.823,198.588,491.242,135.841,448.3,87.05z"/>
<path d="M376.315,223.386c1.795,0,3.596-0.641,5.031-1.94c3.071-2.78,3.306-7.523,0.526-10.594
	c-10.645-11.757-25.836-18.5-41.68-18.5s-31.036,6.743-41.68,18.5c-2.78,3.071-2.544,7.813,0.526,10.594
	c3.071,2.779,7.813,2.544,10.594-0.526c7.806-8.622,18.945-13.567,30.56-13.567c11.615,0,22.753,4.945,30.56,13.567
	C372.232,222.555,374.27,223.386,376.315,223.386z"/>
<path d="M202.304,220.915c1.48,1.639,3.52,2.472,5.567,2.472c1.792,0,3.591-0.639,5.026-1.935c3.073-2.777,3.313-7.52,0.537-10.593
	c-10.626-11.761-25.793-18.506-41.613-18.506s-30.987,6.745-41.613,18.506c-2.777,3.074-2.537,7.816,0.537,10.593
	c3.074,2.777,7.816,2.536,10.593-0.537c7.788-8.619,18.898-13.562,30.483-13.562C183.406,207.353,194.516,212.296,202.304,220.915z"
	/>
<path d="M256.028,375.767c41.978,0,82.237-15.155,110.453-41.579c4.523-4.236,5.515-10.75,2.468-16.209
	c-3.059-5.479-9.147-8.063-15.148-6.43c-27.325,7.436-62.048,11.531-97.772,11.531c-35.724,0-70.447-4.095-97.771-11.531
	c-6.004-1.636-12.09,0.951-15.148,6.43c-3.047,5.458-2.055,11.973,2.468,16.209C173.793,360.612,214.051,375.767,256.028,375.767z
	 M256.028,338.081c34.238,0,67.709-3.663,95.149-10.365c-25.124,21.077-59.397,33.052-95.149,33.052
	c-35.753,0-70.026-11.975-95.148-33.052C188.32,334.418,221.791,338.081,256.028,338.081z"/>
<g>
</g>
<g>
</g>
<g>
</g>
<g>
</g>
<g>
</g>
<g>
</g>
<g>
</g>
<g>
</g>
<g>
</g>
<g>
</g>
<g>
</g>
<g>
</g>
<g>
</g>
<g>
</g>
<g>
</g>
</svg>
