<svg id="svg6826" height="32" viewBox="0 0 32 32.000001" width="32" xmlns="http://www.w3.org/2000/svg" xmlns:cc="http://creativecommons.org/ns#" xmlns:dc="http://purl.org/dc/elements/1.1/" xmlns:inkscape="http://www.inkscape.org/namespaces/inkscape" xmlns:rdf="http://www.w3.org/1999/02/22-rdf-syntax-ns#" xmlns:sodipodi="http://sodipodi.sourceforge.net/DTD/sodipodi-0.dtd" xmlns:svg="http://www.w3.org/2000/svg"><g id="layer1" transform="translate(0 -1020.362)"><g id="g32863" transform="translate(-1920.759 173.531)"><path id="path32829" d="m1945.7764 862.92567a12.375 12.375 0 0 1 -12.375 12.375 12.375 12.375 0 0 1 -12.375-12.375 12.375 12.375 0 0 1 12.375-12.375 12.375 12.375 0 0 1 12.375 12.375z" fill="#9ee8d9"/><g id="g32861" stroke="#3a3640" transform="translate(1922.492 -177.5)"><g fill="none" stroke="#3a3640"><path id="path32831" d="m12.499949 1033.8694v4.9928a1 1 135 0 1 -1 1h-7.4928268" stroke-linejoin="round"/><path id="path32833" d="m26.500001 1046.8622h1.999999a1 1 135 0 0 1-1v-11a1 1 45 0 0 -1-1h-18.9874955a1 1 154.62934 0 0 -.7742967.3672l-6.0125047 7.3566a1 1 109.62934 0 0 -.2257033.6329v2.6433a2 2 45 0 0 2 2h2.0000003" stroke-linejoin="round"/><path id="path32835" d="m-8.0000014 1047.8622a2.0001893 1.9998085 0 0 1 -2.0001896 1.9998 2.0001893 1.9998085 0 0 1 -2.000189-1.9998 2.0001893 1.9998085 0 0 1 2.000189-1.9998 2.0001893 1.9998085 0 0 1 2.0001896 1.9998z" stroke-linecap="round" stroke-linejoin="round" transform="scale(-1 1)"/><path id="path32837" d="m19.5 1046.8622h-6"/><path id="path32839" d="m12.5 1033.8551.000068-.9885a.99999905.99083137 0 0 1 .493267-.8658.99999905.99083137 0 0 1 1.00332-.01.99999905.99083137 0 0 1 .503344.86l.000001 1.0042" stroke-linecap="round" stroke-linejoin="round"/><path id="path32841" d="m13.5 1028.369v1.4861" stroke-linecap="round" stroke-linejoin="round"/><path id="path32843" d="m15.505051 1030.8571.989898-.9899" stroke-linecap="round" stroke-linejoin="round"/><path id="path32845" d="m-21.000001 1047.8622a2.0001893 1.9998085 0 0 1 -2.00019 1.9998 2.0001893 1.9998085 0 0 1 -2.000189-1.9998 2.0001893 1.9998085 0 0 1 2.000189-1.9998 2.0001893 1.9998085 0 0 1 2.00019 1.9998z" stroke-linecap="round" stroke-linejoin="round" transform="scale(-1 1)"/><g id="g32853" stroke-linecap="round" stroke-linejoin="round" transform="translate(-2.5)"><path id="path32847" d="m26.000189 1040.3622a3.5001893 3.4998085 0 0 1 -3.500189 3.4998 3.5001893 3.4998085 0 0 1 -3.500189-3.4998 3.5001893 3.4998085 0 0 1 3.500189-3.4998 3.5001893 3.4998085 0 0 1 3.500189 3.4998z"/><path id="path32849" d="m22.500001 1038.8691v2.9861"/><path id="path32851" d="m23.993051 1040.3622h-2.9861"/></g><path id="path32855" d="m11.494949 1030.8571-.989898-.9899" stroke-linecap="round" stroke-linejoin="round"/></g><path id="path32857" d="m10.500191 1047.8622a.5.5 0 0 1 -.5.5.5.5 0 0 1 -.5000003-.5.5.5 0 0 1 .5000003-.5.5.5 0 0 1 .5.5z" fill="#3a3640" stroke="none"/><path id="path32859" d="m23.500191 1047.8622a.5.5 0 0 1 -.5.5.5.5 0 0 1 -.5-.5.5.5 0 0 1 .5-.5.5.5 0 0 1 .5.5z" fill="#3a3640" stroke="none"/></g></g></g></svg>