<svg id="svg14578" height="32" viewBox="0 0 8.4666665 8.4666669" width="32" xmlns="http://www.w3.org/2000/svg" xmlns:cc="http://creativecommons.org/ns#" xmlns:dc="http://purl.org/dc/elements/1.1/" xmlns:inkscape="http://www.inkscape.org/namespaces/inkscape" xmlns:rdf="http://www.w3.org/1999/02/22-rdf-syntax-ns#" xmlns:sodipodi="http://sodipodi.sourceforge.net/DTD/sodipodi-0.dtd" xmlns:svg="http://www.w3.org/2000/svg"><g id="layer1" transform="translate(0 -288.533)"><g id="g13261" transform="matrix(.265 0 0 .265 157.647 146.327)"><path id="path13245" d="m-568.79725 551.27745a12.374999 12.374999 0 0 1 -12.375 12.375 12.374999 12.374999 0 0 1 -12.37497-12.375 12.374999 12.374999 0 0 1 12.37497-12.375 12.374999 12.374999 0 0 1 12.375 12.375z" fill="#8be1fc"/><g id="g13259" fill="#3a3640" transform="translate(-264 -608)"><path id="path13247" d="m-320.66891 1155.3378a.50004994.50004994 0 0 0 -.44922.3867c-.48664 1.9921.17783 4.0924 1.72071 5.4434 1.54287 1.3509 3.71054 1.7316 5.62109.9863s3.25032-2.4944 3.4707-4.5332a.50004994.50004994 0 1 0 -.99414-.1074c-.1805 1.6698-1.27496 3.0985-2.83984 3.709-1.56488.6104-3.3359.2998-4.59961-.8067s-1.80483-2.8215-1.40625-4.4531a.50004994.50004994 0 0 0 -.52344-.625z" font-variant-ligatures="normal" font-variant-position="normal" font-variant-caps="normal" font-variant-numeric="normal" font-variant-alternates="normal" font-feature-settings="normal" text-indent="0" text-align="start" text-decoration-line="none" text-decoration-style="solid" text-decoration-color="#000000" text-transform="none" text-orientation="mixed" white-space="normal" shape-padding="0" isolation="auto" mix-blend-mode="normal" solid-color="#000000" solid-opacity="1" vector-effect="none"/><path id="path13249" d="m-318.6357 1155.5312a.50004994.50004994 0 0 0 -.4375.3378c-.48912 1.3753-.067 2.9143 1.05468 3.8497 1.1217.9353 2.71152 1.0753 3.98047.3515s1.95578-2.1638 1.7168-3.6035a.50004994.50004994 0 1 0 -.98633.1641c.17091 1.0296-.31749 2.0537-1.22656 2.5722-.90908.5185-2.04048.4179-2.84375-.2519-.80327-.6699-1.10377-1.7624-.75391-2.7461a.50004994.50004994 0 0 0 -.5039-.6738z" font-variant-ligatures="normal" font-variant-position="normal" font-variant-caps="normal" font-variant-numeric="normal" font-variant-alternates="normal" font-feature-settings="normal" text-indent="0" text-align="start" text-decoration-line="none" text-decoration-style="solid" text-decoration-color="#000000" text-transform="none" text-orientation="mixed" white-space="normal" shape-padding="0" isolation="auto" mix-blend-mode="normal" solid-color="#000000" solid-opacity="1" vector-effect="none"/><g fill-rule="evenodd"><path id="path13251" d="m-323.76852 1168.0312a.50004997.50004997 0 0 0 -.40625.2089l-4.99804 6.9942a.50004997.50004997 0 1 0 .8125.582l4.84961-6.7851h15.48046l4.84961 6.7851a.50004997.50004997 0 1 0 .8125-.582l-4.99804-6.9942a.50004997.50004997 0 0 0 -.40625-.2089z" font-variant-ligatures="normal" font-variant-position="normal" font-variant-caps="normal" font-variant-numeric="normal" font-variant-alternates="normal" font-feature-settings="normal" text-indent="0" text-align="start" text-decoration-line="none" text-decoration-style="solid" text-decoration-color="#000000" text-transform="none" text-orientation="mixed" white-space="normal" shape-padding="0" isolation="auto" mix-blend-mode="normal" solid-color="#000000" solid-opacity="1" vector-effect="none"/><path id="path13253" d="m-318.26364 1172.0312a.50004997.50004997 0 1 0 0 1h4.98633a.50004997.50004997 0 1 0 0-1z" font-variant-ligatures="normal" font-variant-position="normal" font-variant-caps="normal" font-variant-numeric="normal" font-variant-alternates="normal" font-feature-settings="normal" text-indent="0" text-align="start" text-decoration-line="none" text-decoration-style="solid" text-decoration-color="#000000" text-transform="none" text-orientation="mixed" white-space="normal" shape-padding="0" isolation="auto" mix-blend-mode="normal" solid-color="#000000" solid-opacity="1" vector-effect="none"/><path id="path13255" d="m-324.46255 1155.7924c.51163.1163.97049.047 1.38506-.1625l5.06402-2.3903c.61395-.2797.18164-1.1993-.42549-.905l-5.07723 2.3955c-.54822.2645-1.04188.071-1.31323-.3476-.29602-.4814-.14545-1.0975.34307-1.3794 2.32273-1.2488 4.64678-2.5009 6.96966-3.7515 1.81935-.9796 3.85975-1.3781 5.91636-1.1672l8.03625.8244c.66387.068.7651-.9283.10124-.9958l-8.03413-.8227c-2.2512-.2308-4.49887.2066-6.49376 1.2808l-6.97876 3.7583c-.83468.4521-1.41197 1.6365-.69339 2.8213.3168.4833.85018.7625 1.20036.842z" font-variant-ligatures="normal" font-variant-position="normal" font-variant-caps="normal" font-variant-numeric="normal" font-variant-alternates="normal" font-feature-settings="normal" text-indent="0" text-align="start" text-decoration-line="none" text-decoration-style="solid" text-decoration-color="#000000" text-transform="none" text-orientation="mixed" white-space="normal" shape-padding="0" isolation="auto" mix-blend-mode="normal" solid-color="#000000" solid-opacity="1" vector-effect="none"/><path id="path13257" d="m-306.05823 1156.8049 3.54136-.8146a.50004994.50004994 0 1 0 -.2225-.9747l-3.54331.8147c-.93972.2158-1.9241.1197-2.80553-.2731l-3.32259-1.481a.50004994.50004994 0 0 0 -.25344-.041l-3.74059.3793c-.55253.056-1.03822-.3356-1.10142-.8916l-.0451-.4057c-.0624-.5457.3219-1.024.86431-1.079l5.69735-.5776a.50004994.50004994 0 1 0 -.10087-.9949l-5.69735.5776c-1.086.1101-1.88052 1.1011-1.75715 2.1865l.0473.4074c.12358 1.087 1.10633 1.8824 2.19385 1.7722l3.60846-.3659 3.1993 1.4267c1.07924.4812 2.28694.599 3.43801.3346z" font-variant-ligatures="normal" font-variant-position="normal" font-variant-caps="normal" font-variant-numeric="normal" font-variant-alternates="normal" font-feature-settings="normal" text-indent="0" text-align="start" text-decoration-line="none" text-decoration-style="solid" text-decoration-color="#000000" text-transform="none" text-orientation="mixed" white-space="normal" shape-padding="0" isolation="auto" mix-blend-mode="normal" solid-color="#000000" solid-opacity="1" vector-effect="none"/></g></g></g></g></svg>