<svg id="svg2" height="32" viewBox="0 0 32 32.000001" width="32" xmlns="http://www.w3.org/2000/svg" xmlns:cc="http://creativecommons.org/ns#" xmlns:dc="http://purl.org/dc/elements/1.1/" xmlns:inkscape="http://www.inkscape.org/namespaces/inkscape" xmlns:rdf="http://www.w3.org/1999/02/22-rdf-syntax-ns#" xmlns:sodipodi="http://sodipodi.sourceforge.net/DTD/sodipodi-0.dtd" xmlns:svg="http://www.w3.org/2000/svg"><g id="layer1" transform="translate(0 -1020.362)"><g id="g13757" transform="translate(1497.141 -58.679)"><path id="path13759" d="m-1469.0942 1094.8622a12.375 12.375 0 0 1 -12.375 12.375 12.375 12.375 0 0 1 -12.375-12.375 12.375 12.375 0 0 1 12.375-12.375 12.375 12.375 0 0 1 12.375 12.375z" fill="#fc987a"/><g id="g13761" fill="none" stroke="#3a3640" transform="translate(-1537.141 59.929)"><path id="path13763" d="m46.5001 1049.3622v-3h18.9999v3z" stroke-linecap="round" stroke-linejoin="round"/><path id="path13765" d="m47.499908 1046.3622v-2h17v2" stroke-linejoin="round"/><path id="path13767" d="m48.4999 1044.3622 2.35282-13.1758a.99999999.99999999 0 0 1 .98443-.8242h8.32551a1 1 0 0 1 .98442.8242l2.35282 13.1758"/><g stroke-linecap="round" stroke-linejoin="round"><path id="path13769" d="m55.9999 1027.3551v-6.4859"/><path id="path13771" d="m65.00703 1033.8622h5.48594"/><path id="path13774" d="m41.50703 1033.8622h5.48593"/><path id="path13780" d="m63.50495 1028.8571 3.9899-3.9899"/><path id="path13787" d="m48.49485 1028.8571-3.9899-3.9899"/><path id="path13789" d="m51.186306 1041.7419 1.470512-8.2349"/></g></g></g></g></svg>