<svg id="svg8" height="32" viewBox="0 0 8.4666665 8.4666669" width="32" xmlns="http://www.w3.org/2000/svg" xmlns:cc="http://creativecommons.org/ns#" xmlns:dc="http://purl.org/dc/elements/1.1/" xmlns:inkscape="http://www.inkscape.org/namespaces/inkscape" xmlns:rdf="http://www.w3.org/1999/02/22-rdf-syntax-ns#" xmlns:sodipodi="http://sodipodi.sourceforge.net/DTD/sodipodi-0.dtd" xmlns:svg="http://www.w3.org/2000/svg"><g id="layer1" transform="translate(0 -288.533)"><g id="g18945" transform="translate(307.596 -284.773)"><path id="path18883" d="m-300.89517 577.54009a3.2742185 3.2742185 0 0 1 -3.27421 3.27422 3.2742185 3.2742185 0 0 1 -3.27422-3.27422 3.2742185 3.2742185 0 0 1 3.27422-3.27422 3.2742185 3.2742185 0 0 1 3.27421 3.27422z" fill="#ffbbec"/><g id="g18943" fill="#3a3640" transform="translate(-27.342 396.517)"><path id="path18885" d="m-274.08594 177.55273c-.15173.002-.28155.0575-.36914.14649-.0545.0553-.0894.11926-.1154.18796-.0216-.003-.021-.002-.0427-.002-.29069 0-.5293.23665-.5293.52734.01.14515.0419.23611.11883.33105-.0726.094-.11865.19854-.11883.33111 0 .29069.23861.5293.5293.5293.009-.003.0235.002.0446.001.0511.17105.26157.33142.48466.32866.2024-.00019.40727-.12218.48858-.33067.0219-.002.0226.001.0407.0006.29069 0 .5293-.23862.5293-.5293-.00007-.13334-.0412-.23777-.11675-.33306.0738-.089.11668-.19633.11675-.32905 0-.29069-.23861-.52734-.5293-.52734-.046.0002-.018.001-.0407-.00037-.0663-.16397-.21394-.32429-.49065-.33217zm.002.26563h.002c.13559.00095.2474.10131.26172.23633.01.0856.097.13948.17773.10937.0287-.0106.0571-.0155.0879-.0156.1477 0 .26563.11598.26563.26367-.00005.0889-.045.17164-.11914.2207-.0791.0523-.0791.1684 0 .22071.0741.0491.11909.13181.11914.2207 0 .14714-.11675.26477-.26367.26562-.0315-.00014-.0625-.005-.0899-.0156-.0807-.0301-.16823.0237-.17773.10937-.0144.13559-.12733.2362-.26367.23633-.13621-.00011-.24718-.10089-.26172-.23633-.008-.0864-.0963-.14155-.17774-.11132-.0286.0104-.059.0175-.0898.0176-.14769 0-.26367-.11793-.26367-.26562.00012-.089.0449-.17172.11914-.2207.0791-.0523.0791-.1684 0-.22071-.0742-.0489-.11902-.13176-.11914-.2207 0-.14769.11598-.26367.26367-.26367.0308.00003.0613.005.0898.0156.0768.0283.1606-.0192.17578-.0996.0144-.0782.0431-.14015.082-.17968.0385-.0392.0881-.0648.18164-.0664z" font-variant-ligatures="normal" font-variant-position="normal" font-variant-caps="normal" font-variant-numeric="normal" font-variant-alternates="normal" font-feature-settings="normal" text-indent="0" text-align="start" text-decoration-line="none" text-decoration-style="solid" text-decoration-color="#000000" text-transform="none" text-orientation="mixed" white-space="normal" shape-padding="0" isolation="auto" mix-blend-mode="normal" solid-color="#000000" solid-opacity="1" vector-effect="none"/><path id="path18887" d="m-276.33398 177.41797c-.0735.00079-.13223.0613-.13086.13476-.0171.40751.0886.76957.29722 1.03933-.0582.0631-.1028.10569-.17027.1619-.33225.26837-.75353.45312-1.31836.45312-.0727.00079-.13114.0601-.13086.13281v1.05664c0 .98478.80038 1.78711 1.78516 1.78711.98477 0 1.78708-.80233 1.78711-1.78711v-.19726c0-.17709-.26563-.17709-.26563 0v.19726c-.00002.84179-.6797 1.52149-1.52148 1.52149-.84179 0-1.5243-.6797-1.52149-1.52149l.003-.93028c.55269-.0132 1.01139-.23477 1.35042-.50917.00067.00001.001.00001.002 0 .0655-.0545.11065-.0974.1674-.15902.1082.11562.22444.21218.3619.3016.0478.0311.0978.0604.14844.0879.16015.10189.29829-.15498.125-.23242-.0447-.0243-.0873-.0491-.12891-.0762-.167-.10864-.30926-.24122-.42188-.38868-.1803-.23607-.2832-.50949-.2832-.80468v-.13282c.001-.075-.0598-.13617-.13476-.13476z" font-variant-ligatures="normal" font-variant-position="normal" font-variant-caps="normal" font-variant-numeric="normal" font-variant-alternates="normal" font-feature-settings="normal" text-indent="0" text-align="start" text-decoration-line="none" text-decoration-style="solid" text-decoration-color="#000000" text-transform="none" text-orientation="mixed" white-space="normal" shape-padding="0" isolation="auto" mix-blend-mode="normal" solid-color="#000000" solid-opacity="1" vector-effect="none"/><path id="path18889" d="m-274.52734 182.58203-.0371.26172c.42651.0593.68105.22277.8789.47461.16462.20954.29835.52013.41233.84961h-4.38303v.26367h4.56445c.0896.00048.15376-.0864.12696-.17187-.13771-.4269-.27713-.80687-.51172-1.10547-.23459-.29861-.56987-.50535-1.05078-.57227z" font-variant-ligatures="normal" font-variant-position="normal" font-variant-caps="normal" font-variant-numeric="normal" font-variant-alternates="normal" font-feature-settings="normal" text-indent="0" text-align="start" text-decoration-line="none" text-decoration-style="solid" text-decoration-color="#000000" text-transform="none" text-orientation="mixed" white-space="normal" shape-padding="0" isolation="auto" mix-blend-mode="normal" solid-color="#000000" solid-opacity="1" vector-effect="none"/><path id="path18891" d="m-276.74219 182.31641c-.1639.0195-.15134.26127.0137.26367h.21536c.0685.25858.29346.39648.51121.39648.21774 0 .45009-.14283.50903-.39648h.93527c-.15466.2001-.27957.39502-.36227.6289-.11148.31526-.13086.67854-.0195 1.12305.0279.15842.31239.0903.25586-.0644-.10158-.40557-.0804-.70476.0137-.9707.094-.26595.26709-.50304.48828-.76368.0709-.0854.0114-.21494-.0996-.21679h-1.32422c-.072.00078-.13008.0589-.13086.13086 0 .14769-.11793.26562-.26562.26562-.1477 0-.26368-.11793-.26367-.26562-.00079-.0727-.0601-.13115-.13282-.13086h-.33008c-.005-.00024-.009-.00024-.0137 0z" font-variant-ligatures="normal" font-variant-position="normal" font-variant-caps="normal" font-variant-numeric="normal" font-variant-alternates="normal" font-feature-settings="normal" text-indent="0" text-align="start" text-decoration-line="none" text-decoration-style="solid" text-decoration-color="#000000" text-transform="none" text-orientation="mixed" white-space="normal" shape-padding="0" isolation="auto" mix-blend-mode="normal" solid-color="#000000" solid-opacity="1" vector-effect="none"/><path id="path18893" d="m-275.20703 179.86914c-.21762 0-.39844.17887-.39844.39648h.26563c0-.0746.0582-.13281.13281-.13281.0746 0 .13086.0582.13086.13281h.26562c0-.21761-.17886-.39648-.39648-.39648z" font-variant-ligatures="normal" font-variant-position="normal" font-variant-caps="normal" font-variant-numeric="normal" font-variant-alternates="normal" font-feature-settings="normal" text-indent="0" text-align="start" text-decoration-line="none" text-decoration-style="solid" text-decoration-color="#000000" text-transform="none" text-orientation="mixed" white-space="normal" shape-padding="0" isolation="auto" mix-blend-mode="normal" solid-color="#000000" solid-opacity="1" vector-effect="none"/><path id="path18895" d="m-276.79492 179.86914c-.21762 0-.39649.17887-.39649.39648h.26368c0-.0746.0582-.13281.13281-.13281.0746 0 .13086.0582.13086.13281h.26562c0-.21761-.17886-.39648-.39648-.39648z" font-variant-ligatures="normal" font-variant-position="normal" font-variant-caps="normal" font-variant-numeric="normal" font-variant-alternates="normal" font-feature-settings="normal" text-indent="0" text-align="start" text-decoration-line="none" text-decoration-style="solid" text-decoration-color="#000000" text-transform="none" text-orientation="mixed" white-space="normal" shape-padding="0" isolation="auto" mix-blend-mode="normal" solid-color="#000000" solid-opacity="1" vector-effect="none"/><path id="path18897" d="m-276.66406 180.92578c0 .36374.29837.66211.66211.66211s.66211-.29837.66211-.66211h-.26563c0 .22074-.17573.39844-.39648.39844-.22074 0-.39649-.1777-.39649-.39844z" font-variant-ligatures="normal" font-variant-position="normal" font-variant-caps="normal" font-variant-numeric="normal" font-variant-alternates="normal" font-feature-settings="normal" text-indent="0" text-align="start" text-decoration-line="none" text-decoration-style="solid" text-decoration-color="#000000" text-transform="none" text-orientation="mixed" white-space="normal" shape-padding="0" isolation="auto" mix-blend-mode="normal" solid-color="#000000" solid-opacity="1" vector-effect="none"/><path id="path18899" d="m-276.2832 177.36719c.42795-.0442.87067.0137 1.27539.17773a.13239194.13239194 0 1 1 -.0977.2461c-.72356-.29336-1.60399-.20104-2.20898.22656-.605.4276-.82115 1.0832-.57227 1.68554a.1323049.1323049 0 1 1 -.24414.10157c-.29638-.71729-.0236-1.5179.66406-2.00391.34382-.243.75565-.38936 1.1836-.43359z" font-variant-ligatures="normal" font-variant-position="normal" font-variant-caps="normal" font-variant-numeric="normal" font-variant-alternates="normal" font-feature-settings="normal" text-indent="0" text-align="start" text-decoration-line="none" text-decoration-style="solid" text-decoration-color="#000000" text-transform="none" text-orientation="mixed" white-space="normal" shape-padding="0" isolation="auto" mix-blend-mode="normal" solid-color="#000000" solid-opacity="1" vector-effect="none"/><path id="path18901" d="m-273.64453 180.45898c.24634.33978.21089.81075-.084 1.10938-.29487.29863-.76455.33968-1.10742.0977l.15235-.2168c.23862.16844.56235.13948.76757-.0684.20523-.20784.22809-.5311.0566-.76758z" font-variant-ligatures="normal" font-variant-position="normal" font-variant-caps="normal" font-variant-numeric="normal" font-variant-alternates="normal" font-feature-settings="normal" text-indent="0" text-align="start" text-decoration-line="none" text-decoration-style="solid" text-decoration-color="#000000" text-transform="none" text-orientation="mixed" white-space="normal" shape-padding="0" isolation="auto" mix-blend-mode="normal" solid-color="#000000" solid-opacity="1" vector-effect="none"/><path id="path18903" d="m-273.60547 179.99609a.1323049.1323049 0 0 1 .125.14063c-.0133.29978-.21171.56047-.49609.65625a.1323049.1323049 0 1 1 -.084-.25c.18162-.0612.30594-.22652.31446-.41797a.1323049.1323049 0 0 1 .14062-.12891z" font-variant-ligatures="normal" font-variant-position="normal" font-variant-caps="normal" font-variant-numeric="normal" font-variant-alternates="normal" font-feature-settings="normal" text-indent="0" text-align="start" text-decoration-line="none" text-decoration-style="solid" text-decoration-color="#000000" text-transform="none" text-orientation="mixed" white-space="normal" shape-padding="0" isolation="auto" mix-blend-mode="normal" solid-color="#000000" solid-opacity="1" vector-effect="none"/><path id="path18905" d="m-278.35938 180.45898c-.24634.33978-.21089.81075.084 1.10938.29488.29863.76455.33968 1.10742.0977l-.15234-.2168c-.23863.16844-.5604.13948-.76563-.0684-.20523-.20784-.23004-.5311-.0586-.76758z" font-variant-ligatures="normal" font-variant-position="normal" font-variant-caps="normal" font-variant-numeric="normal" font-variant-alternates="normal" font-feature-settings="normal" text-indent="0" text-align="start" text-decoration-line="none" text-decoration-style="solid" text-decoration-color="#000000" text-transform="none" text-orientation="mixed" white-space="normal" shape-padding="0" isolation="auto" mix-blend-mode="normal" solid-color="#000000" solid-opacity="1" vector-effect="none"/><path id="path18907" d="m-278.13281 179.4707a.1323049.1323049 0 0 0 -.0566.0215c-.23438.15146-.36276.42427-.32813.70117.0346.2769.22577.51054.49024.59961a.1323049.1323049 0 1 0 .084-.25c-.16876-.0568-.28844-.20612-.31055-.38281-.0221-.1767.0575-.34866.20703-.44532a.1323049.1323049 0 0 0 -.0859-.24414z" font-variant-ligatures="normal" font-variant-position="normal" font-variant-caps="normal" font-variant-numeric="normal" font-variant-alternates="normal" font-feature-settings="normal" text-indent="0" text-align="start" text-decoration-line="none" text-decoration-style="solid" text-decoration-color="#000000" text-transform="none" text-orientation="mixed" white-space="normal" shape-padding="0" isolation="auto" mix-blend-mode="normal" solid-color="#000000" solid-opacity="1" vector-effect="none"/><path id="path18909" d="m-276.13477 182.84557v1.45521h.26458v-1.45521z" font-variant-ligatures="normal" font-variant-position="normal" font-variant-caps="normal" font-variant-numeric="normal" font-variant-alternates="normal" font-feature-settings="normal" text-indent="0" text-align="start" text-decoration-line="none" text-decoration-style="solid" text-decoration-color="#000000" text-transform="none" text-orientation="mixed" white-space="normal" shape-padding="0" isolation="auto" mix-blend-mode="normal" solid-color="#000000" solid-opacity="1" vector-effect="none"/><path id="path18911" d="m-278.29102 181.91602c-.47414 0-.90575.1909-1.21679.50195-.15541.1554-.28203.34085-.36914.54687a.13230489.13230489 0 0 0 .0312.14649l1.21875 1.17578a.13261135.13261135 0 1 0 .18359-.19141l-1.14258-1.09765c.0708-.14296.1537-.28066.26563-.39258.26351-.26352.6267-.42578 1.02929-.42578.40261 0 .76382.16226 1.02735.42578.11191.11191.19482.2496.26562.39258l-1.14257 1.09765a.13230489.13230489 0 1 0 .18359.18946l1.21875-1.17383a.13230489.13230489 0 0 0 .0312-.14649c-.0871-.206-.21373-.39146-.36914-.54687-.31105-.31104-.74069-.50195-1.21485-.50195z" font-variant-ligatures="normal" font-variant-position="normal" font-variant-caps="normal" font-variant-numeric="normal" font-variant-alternates="normal" font-feature-settings="normal" text-indent="0" text-align="start" text-decoration-line="none" text-decoration-style="solid" text-decoration-color="#000000" text-transform="none" text-orientation="mixed" white-space="normal" shape-padding="0" isolation="auto" mix-blend-mode="normal" solid-color="#000000" solid-opacity="1" vector-effect="none"/><path id="path18913" d="m-278.29297 183.90039c.21763 0 .39844.17886.39844.39649 0 .21762-.18081.39648-.39844.39648-.21762 0-.39648-.17886-.39648-.39648 0-.21763.17886-.39649.39648-.39649zm0 .26367c-.0746 0-.13086.0582-.13086.13282 0 .0746.0562.13085.13086.13085.0746 0 .13281-.0562.13281-.13085 0-.0746-.0582-.13282-.13281-.13282z" font-variant-ligatures="normal" font-variant-position="normal" font-variant-caps="normal" font-variant-numeric="normal" font-variant-alternates="normal" font-feature-settings="normal" text-indent="0" text-align="start" text-decoration-line="none" text-decoration-style="solid" text-decoration-color="#000000" text-transform="none" text-orientation="mixed" white-space="normal" shape-padding="0" isolation="auto" mix-blend-mode="normal" solid-color="#000000" solid-opacity="1" vector-effect="none"/><path id="path18915" d="m-277.64648 182.13867-.67969 1.86328.24805.0918.67968-1.86523z" font-variant-ligatures="normal" font-variant-position="normal" font-variant-caps="normal" font-variant-numeric="normal" font-variant-alternates="normal" font-feature-settings="normal" text-indent="0" text-align="start" text-decoration-line="none" text-decoration-style="solid" text-decoration-color="#000000" text-transform="none" text-orientation="mixed" white-space="normal" shape-padding="0" isolation="auto" mix-blend-mode="normal" solid-color="#000000" solid-opacity="1" vector-effect="none"/><path id="path18917" d="m-278.9375 182.13867-.24805.0899.67774 1.86523.25-.0918z" font-variant-ligatures="normal" font-variant-position="normal" font-variant-caps="normal" font-variant-numeric="normal" font-variant-alternates="normal" font-feature-settings="normal" text-indent="0" text-align="start" text-decoration-line="none" text-decoration-style="solid" text-decoration-color="#000000" text-transform="none" text-orientation="mixed" white-space="normal" shape-padding="0" isolation="auto" mix-blend-mode="normal" solid-color="#000000" solid-opacity="1" vector-effect="none"/><path id="path18919" d="m-278.29102 182.44727c-.36445 0-.69638.14952-.93554.38867-.11944.11944-.21619.26135-.28321.41992a.13230489.13230489 0 1 0 .24219.10352c.0534-.12631.13258-.24196.22852-.3379.19164-.19163.45514-.30859.74804-.30859s.55447.11699.7461.30859c.0959.096.17509.21159.22851.3379a.13230489.13230489 0 1 0 .24219-.10352c-.067-.15848-.16375-.30045-.2832-.41992-.23915-.23912-.56913-.38867-.9336-.38867z" font-variant-ligatures="normal" font-variant-position="normal" font-variant-caps="normal" font-variant-numeric="normal" font-variant-alternates="normal" font-feature-settings="normal" text-indent="0" text-align="start" text-decoration-line="none" text-decoration-style="solid" text-decoration-color="#000000" text-transform="none" text-orientation="mixed" white-space="normal" shape-padding="0" isolation="auto" mix-blend-mode="normal" solid-color="#000000" solid-opacity="1" vector-effect="none"/><path id="path18921" d="m-279.10742 178.34375a.13230489.13230489 0 0 0 -.11719.13281v.12891a.132815.132815 0 1 0 .26563 0v-.12891a.13230489.13230489 0 0 0 -.14844-.13281z" font-variant-ligatures="normal" font-variant-position="normal" font-variant-caps="normal" font-variant-numeric="normal" font-variant-alternates="normal" font-feature-settings="normal" text-indent="0" text-align="start" text-decoration-line="none" text-decoration-style="solid" text-decoration-color="#000000" text-transform="none" text-orientation="mixed" white-space="normal" shape-padding="0" isolation="auto" mix-blend-mode="normal" solid-color="#000000" solid-opacity="1" vector-effect="none"/><path id="path18923" d="m-279.10742 177.68164a.13230489.13230489 0 0 0 -.11719.13477v.1289a.132815.132815 0 1 0 .26563 0v-.1289a.13230489.13230489 0 0 0 -.14844-.13477z" font-variant-ligatures="normal" font-variant-position="normal" font-variant-caps="normal" font-variant-numeric="normal" font-variant-alternates="normal" font-feature-settings="normal" text-indent="0" text-align="start" text-decoration-line="none" text-decoration-style="solid" text-decoration-color="#000000" text-transform="none" text-orientation="mixed" white-space="normal" shape-padding="0" isolation="auto" mix-blend-mode="normal" solid-color="#000000" solid-opacity="1" vector-effect="none"/><path id="path18925" d="m-278.82617 178.07812a.132815.132815 0 1 0 0 .26563h.1289a.132815.132815 0 1 0 0-.26563z" font-variant-ligatures="normal" font-variant-position="normal" font-variant-caps="normal" font-variant-numeric="normal" font-variant-alternates="normal" font-feature-settings="normal" text-indent="0" text-align="start" text-decoration-line="none" text-decoration-style="solid" text-decoration-color="#000000" text-transform="none" text-orientation="mixed" white-space="normal" shape-padding="0" isolation="auto" mix-blend-mode="normal" solid-color="#000000" solid-opacity="1" vector-effect="none"/><path id="path18927" d="m-279.48633 178.07812a.132815.132815 0 1 0 0 .26563h.12891a.132815.132815 0 1 0 0-.26563z" font-variant-ligatures="normal" font-variant-position="normal" font-variant-caps="normal" font-variant-numeric="normal" font-variant-alternates="normal" font-feature-settings="normal" text-indent="0" text-align="start" text-decoration-line="none" text-decoration-style="solid" text-decoration-color="#000000" text-transform="none" text-orientation="mixed" white-space="normal" shape-padding="0" isolation="auto" mix-blend-mode="normal" solid-color="#000000" solid-opacity="1" vector-effect="none"/><path id="path18929" d="m-278.82898-180.66196a.13231973.13228898 0 0 1 -.13232.13229.13231973.13228898 0 0 1 -.13232-.13229.13231973.13228898 0 0 1 .13232-.13229.13231973.13228898 0 0 1 .13232.13229z" transform="scale(1 -1)"/><path id="path18931" d="m-279.24726-179.68689a.13231973.13228898 0 0 1 -.13232.13229.13231973.13228898 0 0 1 -.13232-.13229.13231973.13228898 0 0 1 .13232-.13229.13231973.13228898 0 0 1 .13232.13229z" transform="scale(1 -1)"/><path id="path18933" d="m-272.48047 180.45898a.13230489.13230489 0 0 0 -.13086.13477v.12891a.132815.132815 0 1 0 .26563 0v-.12891a.13230489.13230489 0 0 0 -.13477-.13477z" font-variant-ligatures="normal" font-variant-position="normal" font-variant-caps="normal" font-variant-numeric="normal" font-variant-alternates="normal" font-feature-settings="normal" text-indent="0" text-align="start" text-decoration-line="none" text-decoration-style="solid" text-decoration-color="#000000" text-transform="none" text-orientation="mixed" white-space="normal" shape-padding="0" isolation="auto" mix-blend-mode="normal" solid-color="#000000" solid-opacity="1" vector-effect="none"/><path id="path18935" d="m-272.48047 181.12109a.13230489.13230489 0 0 0 -.13086.13477v.12891a.132815.132815 0 1 0 .26563 0v-.12891a.13230489.13230489 0 0 0 -.13477-.13477z" font-variant-ligatures="normal" font-variant-position="normal" font-variant-caps="normal" font-variant-numeric="normal" font-variant-alternates="normal" font-feature-settings="normal" text-indent="0" text-align="start" text-decoration-line="none" text-decoration-style="solid" text-decoration-color="#000000" text-transform="none" text-orientation="mixed" white-space="normal" shape-padding="0" isolation="auto" mix-blend-mode="normal" solid-color="#000000" solid-opacity="1" vector-effect="none"/><path id="path18937" d="m-272.22461 180.85742a.13230489.13230489 0 0 0 .0117.26367h.12891a.13230489.13230489 0 1 0 0-.26367h-.12891a.13230489.13230489 0 0 0 -.0117 0z" font-variant-ligatures="normal" font-variant-position="normal" font-variant-caps="normal" font-variant-numeric="normal" font-variant-alternates="normal" font-feature-settings="normal" text-indent="0" text-align="start" text-decoration-line="none" text-decoration-style="solid" text-decoration-color="#000000" text-transform="none" text-orientation="mixed" white-space="normal" shape-padding="0" isolation="auto" mix-blend-mode="normal" solid-color="#000000" solid-opacity="1" vector-effect="none"/><path id="path18939" d="m-272.88672 180.85742a.13230489.13230489 0 0 0 .0137.26367h.12696a.13230489.13230489 0 1 0 0-.26367h-.12696a.13230489.13230489 0 0 0 -.0137 0z" font-variant-ligatures="normal" font-variant-position="normal" font-variant-caps="normal" font-variant-numeric="normal" font-variant-alternates="normal" font-feature-settings="normal" text-indent="0" text-align="start" text-decoration-line="none" text-decoration-style="solid" text-decoration-color="#000000" text-transform="none" text-orientation="mixed" white-space="normal" shape-padding="0" isolation="auto" mix-blend-mode="normal" solid-color="#000000" solid-opacity="1" vector-effect="none"/><path id="path18941" d="m-272.74344 181.91512a.13231973.13228898 0 0 1 -.13232.13228.13231973.13228898 0 0 1 -.13232-.13228.13231973.13228898 0 0 1 .13232-.13229.13231973.13228898 0 0 1 .13232.13229z"/></g></g></g></svg>